<?xml version="1.0" encoding="UTF-8" standalone="no"?>
<svg
   xmlns:dc="http://purl.org/dc/elements/1.1/"
   xmlns:cc="http://creativecommons.org/ns#"
   xmlns:rdf="http://www.w3.org/1999/02/22-rdf-syntax-ns#"
   xmlns:svg="http://www.w3.org/2000/svg"
   xmlns="http://www.w3.org/2000/svg"
   xmlns:sodipodi="http://sodipodi.sourceforge.net/DTD/sodipodi-0.dtd"
   xmlns:inkscape="http://www.inkscape.org/namespaces/inkscape"
   width="52.599804mm"
   height="20.882235mm"
   viewBox="0 0 52.599804 20.882235"
   version="1.1"
   id="svg2541"
   sodipodi:docname="logo.svg"
   inkscape:version="1.0.2-2 (e86c870879, 2021-01-15)">
  <defs
     id="defs2535" />
  <sodipodi:namedview
     id="base"
     pagecolor="#ffffff"
     bordercolor="#666666"
     borderopacity="1.0"
     inkscape:pageopacity="0.0"
     inkscape:pageshadow="2"
     inkscape:zoom="0.35"
     inkscape:cx="-73.282811"
     inkscape:cy="-172.67915"
     inkscape:document-units="mm"
     inkscape:current-layer="layer1"
     inkscape:document-rotation="0"
     showgrid="false"
     lock-margins="true"
     inkscape:window-width="1267"
     inkscape:window-height="728"
     inkscape:window-x="83"
     inkscape:window-y="0"
     inkscape:window-maximized="0"
     fit-margin-top="0"
     fit-margin-left="0"
     fit-margin-right="0"
     fit-margin-bottom="0" />
  <metadata
     id="metadata2538">
    <rdf:RDF>
      <cc:Work
         rdf:about="">
        <dc:format>image/svg+xml</dc:format>
        <dc:type
           rdf:resource="http://purl.org/dc/dcmitype/StillImage" />
        <dc:title></dc:title>
      </cc:Work>
    </rdf:RDF>
  </metadata>
  <g
     inkscape:label="Layer 1"
     inkscape:groupmode="layer"
     id="layer1"
     transform="translate(-55.342956,-69.689834)">
    <g
       id="g2176"
       transform="matrix(0.1581819,0,0,0.1581819,115.20373,85.745447)"
       inkscape:export-filename="C:\Users\USER\Desktop\charles\website\image\for-favicon.png"
       inkscape:export-xdpi="33.220444"
       inkscape:export-ydpi="33.220444">
      <path
         style="fill:#ee5512;fill-opacity:1;stroke:#ee5512;stroke-width:0.999999px;stroke-linecap:butt;stroke-linejoin:miter;stroke-opacity:1"
         d="m -377.87848,-77.654121 0.2307,-22.15933 c 0,0 49.95836,-2.347999 59.42155,-0.440699 30.07019,6.060659 50.11911,37.663449 29.45169,69.148119 -16.52228,-20.22739 -37.56309,-46.31236 -89.10392,-46.54809 z"
         id="path1556"
         sodipodi:nodetypes="ccsccc" />
      <path
         style="fill:#ee5512;fill-opacity:1;stroke:#ee5512;stroke-width:0.999999px;stroke-linecap:butt;stroke-linejoin:miter;stroke-opacity:1"
         d="m -377.48425,-23.768941 -0.44071,-44.5115 c 45.61384,-0.2211 95.68551,34.34241 96.95575,98.27785 l -43.63009,-1.32208 c -0.98819,-34.0423996 -26.36661,-52.16085 -52.88495,-52.44427 z"
         id="path1558"
         sodipodi:nodetypes="ccccc" />
      <path
         style="fill:#ee5512;fill-opacity:1;stroke:#ee5512;stroke-width:0.999999px;stroke-linecap:butt;stroke-linejoin:miter;stroke-opacity:1"
         d="m -377.92496,29.997439 0.44071,-44.0708 c 27.35826,0.71142 41.97776,18.2411404 43.18938,44.07077 z"
         id="path1560"
         sodipodi:nodetypes="cccc" />
    </g>
    <text
       xml:space="preserve"
       style="font-style:normal;font-weight:normal;font-size:6.6516px;line-height:1.25;font-family:sans-serif;fill:#ffffff;fill-opacity:1;stroke:none;stroke-width:0.166291"
       x="73.687668"
       y="90.471375"
       id="text2171"><tspan
         sodipodi:role="line"
         id="tspan2169"
         x="73.687668"
         y="90.471375"
         style="stroke-width:0.166291">NETWORK</tspan></text>
    <g
       id="g2232"
       transform="matrix(0.15446468,0,0,0.15446468,113.79702,85.461893)">
      <path
         d="m -228.80235,-74.435187 v 65.5322491 h -26.65941 V -98.533719 h 34.21072 q 15.62793,0 24.22986,7.748302 9.58688,8.667592 9.58688,21.997298 0,13.59236 -11.8851,22.916588 l 15.36527,36.9685931 h -27.97268 l -12.93573,-28.8919731 v -23.047916 h 2.10124 q 8.40494,0 8.40494,-7.222993 0,-6.369367 -9.71821,-6.369367 z"
         style="font-style:normal;font-variant:normal;font-weight:bold;font-stretch:normal;font-size:134.479px;line-height:1.25;font-family:'Bauhaus 93';-inkscape-font-specification:'Bauhaus 93 Bold';fill:#ffffff;fill-opacity:1;stroke:none;stroke-width:3.36195"
         id="path2198" />
      <path
         d="m -148.36447,-98.533719 v 89.6307811 h -26.65941 V -98.533719 Z"
         style="font-style:normal;font-variant:normal;font-weight:bold;font-stretch:normal;font-size:134.479px;line-height:1.25;font-family:'Bauhaus 93';-inkscape-font-specification:'Bauhaus 93 Bold';fill:#ffffff;fill-opacity:1;stroke:none;stroke-width:3.36195"
         id="path2200" />
      <path
         d="m -87.953976,-100.76628 q 19.042437,0 32.634798,13.855014 13.658023,13.855014 13.658023,33.160106 0,19.633409 -13.723687,33.357096 -13.723687,13.7236877 -33.357097,13.7236877 -19.502081,0 -33.291431,-13.7893507 -13.78935,-13.789351 -13.78935,-33.291433 0,-19.699073 13.85501,-33.357097 13.92068,-13.658023 34.013734,-13.658023 z m -0.787963,26.396757 q -8.207947,0 -13.986341,6.041049 -5.7784,6.041049 -5.7784,14.577314 0,8.536265 5.7784,14.577314 5.844058,6.041049 13.986341,6.041049 8.273611,0 13.986342,-5.975386 5.778395,-6.041049 5.778395,-14.642977 0,-8.601929 -5.778395,-14.577314 -5.712731,-6.041049 -13.986342,-6.041049 z"
         style="font-style:normal;font-variant:normal;font-weight:bold;font-stretch:normal;font-size:134.479px;line-height:1.25;font-family:'Bauhaus 93';-inkscape-font-specification:'Bauhaus 93 Bold';fill:#ffffff;fill-opacity:1;stroke:none;stroke-width:3.36195"
         id="path2202" />
      <g
         id="g2222">
        <path
           style="fill:#0b72f5;fill-opacity:1;stroke:#0b72f5;stroke-width:1px;stroke-linecap:butt;stroke-linejoin:miter;stroke-opacity:1"
           d="m -83.666463,-101.5704 -1.721531,29.954663 c 8.044901,2.35537 10.787967,8.952208 14.46087,14.805176 l 32.509803,2.482607 c 0.771529,-31.184421 -25.367822,-48.186276 -45.249142,-47.242446 z"
           id="path2208"
           sodipodi:nodetypes="ccccc" />
        <path
           style="fill:#ee5512;fill-opacity:1;stroke:#ee5512;stroke-width:0.596543;stroke-linecap:butt;stroke-linejoin:miter;stroke-miterlimit:4;stroke-dasharray:none;stroke-opacity:1"
           d="m -82.406692,-92.65644 0.03798,-7.144305 c 18.696506,0.268541 39.280919,18.477397 40.333268,44.036868 l -8.712979,-0.613907 C -51.536076,-70.800232 -62.03701,-90.317822 -82.406692,-92.65644 Z"
           id="path2192"
           sodipodi:nodetypes="ccccc" />
        <path
           style="fill:#ee5512;fill-opacity:1;stroke:#ee5512;stroke-width:0.596543;stroke-linecap:butt;stroke-linejoin:miter;stroke-miterlimit:4;stroke-dasharray:none;stroke-opacity:1"
           d="m -83.049315,-83.127989 0.513164,-7.578287 c 16.375644,0.517668 28.662434,16.610216 29.929439,34.031315 l -8.114262,-0.479507 c -2.106852,-12.74259 -9.554185,-23.520812 -22.328341,-25.973521 z"
           id="path2194"
           sodipodi:nodetypes="ccccc" />
        <path
           style="fill:#ee5512;fill-opacity:1;stroke:#ee5512;stroke-width:0.497118;stroke-linecap:butt;stroke-linejoin:miter;stroke-miterlimit:4;stroke-dasharray:none;stroke-opacity:1"
           d="m -83.412864,-73.929263 0.228947,-7.210979 c 7.108405,0.718697 17.913137,6.252398 20.740488,23.619521 l -6.584409,-0.445864 c -1.408193,-5.471491 -5.542783,-14.01082 -14.385026,-15.962678 z"
           id="path2196"
           inkscape:transform-center-x="2.4009215"
           inkscape:transform-center-y="2.1484691"
           sodipodi:nodetypes="ccccc" />
      </g>
    </g>
  </g>
</svg>
